<svg xmlns="http://www.w3.org/2000/svg" viewBox="0 0 60 42">
  <rect width="60" height="42" fill="#012169"/>
  <rect width="30" height="21" fill="#012169"/>
  <g fill="#FFFFFF">
    <path d="M0,0 L30,21 M30,0 L0,21" stroke="#FFFFFF" stroke-width="2"/>
    <path d="M15,0 L15,21 M0,10.5 L30,10.5" stroke="#FFFFFF" stroke-width="3.5"/>
  </g>
  <g fill="#C8102E">
    <path d="M0,0 L30,21 M30,0 L0,21" stroke="#C8102E" stroke-width="1"/>
    <path d="M15,0 L15,21 M0,10.5 L30,10.5" stroke="#C8102E" stroke-width="2"/>
  </g>
  <g transform="translate(45,10)" fill="#FFFFFF">
    <path d="M0,-2 L0.6,-0.6 L2,0 L0.6,0.6 L0,2 L-0.6,0.6 L-2,0 L-0.6,-0.6 Z"/>
  </g>
  <g transform="translate(40,25)" fill="#FFFFFF">
    <path d="M0,-1.5 L0.5,-0.5 L1.5,0 L0.5,0.5 L0,1.5 L-0.5,0.5 L-1.5,0 L-0.5,-0.5 Z"/>
  </g>
  <g transform="translate(50,25)" fill="#FFFFFF">
    <path d="M0,-1.5 L0.5,-0.5 L1.5,0 L0.5,0.5 L0,1.5 L-0.5,0.5 L-1.5,0 L-0.5,-0.5 Z"/>
  </g>
</svg>