<svg xmlns="http://www.w3.org/2000/svg" viewBox="0 0 60 42">
  <rect width="60" height="14" fill="#FFD100"/>
  <rect width="60" height="14" y="14" fill="#0033A0"/>
  <rect width="60" height="14" y="28" fill="#CF142B"/>
  <g transform="translate(30,14)" fill="#FFFFFF">
    <g transform="translate(-6,0)">
      <path d="M0,-1.5 L0.5,-0.5 L1.5,0 L0.5,0.5 L0,1.5 L-0.5,0.5 L-1.5,0 L-0.5,-0.5 Z"/>
    </g>
    <g transform="translate(-2,0)">
      <path d="M0,-1.5 L0.5,-0.5 L1.5,0 L0.5,0.5 L0,1.5 L-0.5,0.5 L-1.5,0 L-0.5,-0.5 Z"/>
    </g>
    <g transform="translate(2,0)">
      <path d="M0,-1.5 L0.5,-0.5 L1.5,0 L0.5,0.5 L0,1.5 L-0.5,0.5 L-1.5,0 L-0.5,-0.5 Z"/>
    </g>
    <g transform="translate(6,0)">
      <path d="M0,-1.5 L0.5,-0.5 L1.5,0 L0.5,0.5 L0,1.5 L-0.5,0.5 L-1.5,0 L-0.5,-0.5 Z"/>
    </g>
  </g>
</svg>